<mxfile host="app.diagrams.net" modified="2024-04-06T15:42:01.948Z" agent="Mozilla/5.0 (Windows NT 10.0; Win64; x64) AppleWebKit/537.36 (KHTML, like Gecko) Chrome/123.0.0.0 Safari/537.36" version="24.2.2" etag="2-UGWL3zL1xYqs3OHFic" type="github">
  <diagram name="PÃ¡gina-1" id="bF6B0-WXY76Otl3TRtj2">
    <mxGraphModel>
      <root>
        <mxCell id="0" />
        <mxCell id="1" parent="0" />
      </root>
    </mxGraphModel>
  </diagram>
</mxfile>
